# xmcd
#
# Track frame offsets: 
#        150
#        14943
#        35257
#        61482
#        80256
#        91429
#        114704
#        137613
#        163003
#        174266
#
# Disc length: 2492 seconds
#
# Revision: 1
# Processed by: cddbd v1.5.1PL2 Copyright (c) Steve Scherf et al.
# Submitted via: ExactAudioCopy v0.95b2
#
DISCID=7f09ba0a
DTITLE=Larry The Cable Guy - Health Inspector - soundtrack
DYEAR=2006
DGENRE=Comedy
TTITLE0=Git-R-Done - Montgomery Gentry
TTITLE1=Call Me The Breeze - James Otto
TTITLE2=True - Sister South
TTITLE3=This Town Needs A Bar - Jerome Mccomb
TTITLE4=Love Is Blind - Jerome Mcomb
TTITLE5=Dont Fear The Reaper - Blue Oyster Cult
TTITLE6=I Want To Know What Love Is - Foreigner
TTITLE7=Turn Me Loose - Loverboy
TTITLE8=One More Reason - Bosshouse
TTITLE9=Chain Of Fools - Aretha Franklin
EXTD=Larry The Cable Guy  Health Inspector - soundtrack
EXTT0=
EXTT1=
EXTT2=
EXTT3=
EXTT4=
EXTT5=
EXTT6=
EXTT7=
EXTT8=
EXTT9=
PLAYORDER=
